<svg version="1.0"
  xmlns="http://www.w3.org/2000/svg" width="256.000000pt" height="256.000000pt" viewBox="0 0 256.000000 256.000000" preserveAspectRatio="xMidYMid meet">
  <metadata>
Created by potrace 1.11, written by Peter Selinger 2001-2013
  </metadata>
  <g transform="translate(0.000000,256.000000) scale(0.100000,-0.100000)" fill="#000000" stroke="none">
    <path d="M0 1490 c1 -930 3 -1072 15 -1076 8 -4 12 -10 9 -15 -3 -5 -9 -7 -14 -4 -5 3 -9 -85 -10 -195 l-1 -200 1281 0 1280 0 0 419 0 419 -28 7 c-23 6 -25 8 -9 16 9 6 22 7 27 4 15 -9 12 705 -2 723 -7 8 -7 12 1 12 6 0 11 5 11 11 0 5 -5 7 -12 3 -7 -5 -8 -3 -3 6 4 7 10 26 11 42 3 25 1 29 -14 24 -16 -6 -16 -5 0 8 17 12 18 45 18 440 l0 426 -280 0 c-166 -1 -280 -5 -280 -11 0 -5 -5 -9 -11 -9 -5 0 -7 5 -4 10 4 7 -328 10 -990 10 l-995 0 0 -1070z m1170 966 c0 -3 -4 -8 -10 -11 -5 -3 -10 -1 -10 4 0 6 5 11 10 11 6 0 10 -2 10 -4z m-10 -86 c13 -9 13 -10 0 -10 -8 0 -22 5 -30 10 -13 9 -13 10 0 10 8 0 22 -5 30 -10z m850 -40 c-20 -12 -33 -1 -19 16 9 11 15 12 23 4 8 -8 7 -13 -4 -20z m0 -24 c0 -3 -4 -8 -10 -11 -5 -3 -10 -1 -10 4 0 6 5 11 10 11 6 0 10 -2 10 -4z m-260 -81 c-7 -8 -16 -15 -21 -15 -11 0 1 33 15 42 16 11 20 -10 6 -27z m269 -26 c-19 -12 -24 -2 -8 17 9 11 14 13 17 4 3 -7 -2 -16 -9 -21z m-59 12 c0 -6 -4 -13 -10 -16 -5 -3 -10 1 -10 9 0 9 5 16 10 16 6 0 10 -4 10 -9z m127 -33 c-3 -7 -5 -2 -5 12 0 14 2 19 5 13 2 -7 2 -19 0 -25z m-317 -59 c0 -34 -3 -39 -24 -39 -20 0 -23 4 -21 30 1 16 8 36 15 45 11 13 10 14 -3 9 -12 -4 -14 -1 -10 17 l6 22 19 -22 c10 -14 18 -39 18 -62z m585 61 c-3 -5 -11 -10 -16 -10 -6 0 -7 5 -4 10 3 6 11 10 16 10 6 0 7 -4 4 -10z m-1325 -20 c0 -5 -5 -10 -11 -10 -8 0 -8 -4 -1 -13 13 -16 -3 -87 -19 -87 -11 0 -7 71 6 103 8 18 25 24 25 7z m-500 -10 c0 -5 -5 -10 -11 -10 -5 0 -7 5 -4 10 3 6 8 10 11 10 2 0 4 -4 4 -10z m270 -5 c0 -8 -4 -15 -10 -15 -5 0 -10 7 -10 15 0 8 5 15 10 15 6 0 10 -7 10 -15z m1590 11 c0 -3 -4 -8 -10 -11 -5 -3 -10 -1 -10 4 0 6 5 11 10 11 6 0 10 -2 10 -4z m-1553 -58 c1 -23 -3 -46 -9 -49 -9 -6 -9 -11 1 -22 7 -9 12 -51 13 -111 1 -74 4 -96 14 -96 17 0 18 32 2 48 -9 9 -9 12 0 12 7 0 12 17 13 43 l1 42 10 -32 c6 -18 17 -33 24 -33 7 0 19 -3 28 -6 12 -5 16 0 16 19 0 41 12 87 23 87 11 0 4 -96 -19 -240 -8 -52 -17 -120 -20 -150 -5 -48 -28 -120 -39 -120 -2 0 -15 4 -29 10 -25 9 -26 8 -26 -26 0 -36 -3 -38 -58 -48 l-33 -6 6 158 c4 130 3 153 -7 132 -7 -14 -20 -25 -28 -25 -9 0 -18 -16 -23 -44 -10 -49 -25 -44 -33 10 -7 43 -46 103 -56 86 -12 -18 -10 2 2 24 6 10 18 19 26 19 12 0 14 -7 9 -30 -4 -17 -2 -30 3 -30 12 0 23 122 12 133 -4 5 -11 -8 -14 -27 -4 -20 -11 -36 -15 -36 -16 0 -33 29 -25 42 5 7 7 27 5 45 -2 24 2 33 12 33 9 0 18 6 20 13 3 6 6 -3 6 -20 1 -18 5 -33 11 -33 5 0 7 7 4 15 -4 8 -1 22 5 29 7 8 8 17 3 20 -17 10 6 86 27 86 3 0 6 -59 5 -130 0 -72 3 -127 7 -123 5 5 10 60 13 123 5 132 3 120 17 120 7 0 10 -23 9 -62 -4 -103 0 -202 6 -195 3 3 8 45 10 94 5 128 12 168 34 191 11 12 17 28 14 36 -7 19 3 66 14 66 4 0 9 -19 9 -42z m127 26 c17 -17 21 -50 7 -58 -5 -3 -11 4 -14 15 -4 15 -11 20 -21 16 -11 -4 -16 -1 -16 12 0 33 19 40 44 15z m1421 -21 c-24 -17 -35 -17 -35 0 0 20 9 25 32 19 20 -5 20 -6 3 -19z m-435 -12 c0 -9 -24 -21 -43 -21 -6 0 -2 7 9 15 22 17 34 19 34 6z m210 -6 c0 -8 -4 -15 -10 -15 -5 0 -10 7 -10 15 0 8 5 15 10 15 6 0 10 -7 10 -15z m-1410 -21 c0 -8 -4 -12 -10 -9 -5 3 -10 10 -10 16 0 5 5 9 10 9 6 0 10 -7 10 -16z m-480 -9 c0 -8 -4 -15 -10 -15 -5 0 -10 7 -10 15 0 8 5 15 10 15 6 0 10 -7 10 -15z m364 0 c-4 -8 -10 -12 -15 -9 -14 8 -10 24 6 24 9 0 12 -6 9 -15z m256 5 c0 -5 -2 -10 -4 -10 -3 0 -8 5 -11 10 -3 6 -1 10 4 10 6 0 11 -4 11 -10z m1556 -18 c14 -123 15 -136 5 -121 -12 19 -27 157 -15 146 4 -4 9 -15 10 -25z m-53 1 c4 -3 2 -12 -4 -20 -9 -10 -8 -13 4 -13 9 0 18 -9 22 -19 8 -25 3 -91 -7 -91 -4 0 -5 -7 -2 -15 4 -8 11 -12 17 -8 6 3 7 1 3 -5 -12 -19 -36 -14 -36 8 0 12 -7 20 -16 20 -13 0 -14 3 -5 13 6 8 8 16 5 20 -3 3 -1 15 6 26 9 17 8 21 -5 21 -11 0 -15 10 -15 35 0 33 16 46 33 28z m-1973 -24 c0 -5 -4 -9 -10 -9 -5 0 -10 7 -10 16 0 8 5 12 10 9 6 -3 10 -10 10 -16z m560 11 c0 -5 -4 -10 -10 -10 -5 0 -10 5 -10 10 0 6 5 10 10 10 6 0 10 -4 10 -10z m-390 -8 c0 -13 -12 -22 -22 -16 -10 6 -1 24 13 24 5 0 9 -4 9 -8z m1460 -2 c0 -5 -4 -10 -10 -10 -5 0 -10 5 -10 10 0 6 5 10 10 10 6 0 10 -4 10 -10z m60 -26 c0 -8 -4 -14 -10 -14 -5 0 -10 9 -10 21 0 11 5 17 10 14 6 -3 10 -13 10 -21z m-1460 -32 c0 -18 -22 -36 -32 -27 -2 3 -2 20 0 39 4 30 6 33 18 21 8 -7 14 -22 14 -33z m1400 22 c0 -8 -5 -12 -10 -9 -6 4 -8 11 -5 16 9 14 15 11 15 -7z m-1464 -26 c-5 -42 -4 -40 -15 -33 -6 3 -6 17 1 35 13 39 20 38 14 -2z m1390 2 c0 -8 4 -23 9 -32 4 -10 5 -24 2 -32 -3 -8 -1 -17 6 -19 20 -7 -13 -37 -40 -37 -27 0 -27 1 -13 138 1 11 35 -6 36 -18z m227 -27 c8 -44 -25 -73 -38 -34 -6 19 13 61 26 61 4 0 9 -12 12 -27z m-48 -40 c12 -90 12 -143 -1 -143 -11 0 -24 92 -24 168 0 53 17 36 25 -25z m-375 6 c0 -20 -5 -29 -16 -29 -11 0 -14 5 -10 16 3 9 6 25 6 35 0 11 5 17 10 14 6 -3 10 -19 10 -36z m327 19 c-3 -8 -6 -5 -6 6 -1 11 2 17 5 13 3 -3 4 -12 1 -19z m-1730 -25 c-3 -10 -5 -4 -5 12 0 17 2 24 5 18 2 -7 2 -21 0 -30z m-113 -34 c-11 -19 -20 -8 -22 29 l-2 37 15 -29 c8 -15 12 -32 9 -37z m146 36 c0 -8 -4 -15 -10 -15 -5 0 -10 7 -10 15 0 8 5 15 10 15 6 0 10 -7 10 -15z m1632 -7 c-6 -6 -15 -8 -19 -4 -4 4 -1 11 7 16 19 12 27 3 12 -12z m-1454 -17 c3 -8 -1 -12 -9 -9 -7 2 -15 10 -17 17 -3 8 1 12 9 9 7 -2 15 -10 17 -17z m-282 -28 c-11 -11 -19 6 -11 24 8 17 8 17 12 0 3 -10 2 -21 -1 -24z m909 27 c7 0 27 -13 44 -29 42 -39 42 -80 0 -115 -41 -35 -85 -34 -132 2 -30 22 -36 34 -37 63 0 38 17 61 60 78 14 5 31 8 38 5 8 -2 20 -4 27 -4z m849 -47 c7 -57 -6 -72 -26 -28 -8 19 -8 28 2 40 11 13 10 14 -4 9 -10 -4 -16 -1 -16 9 0 12 27 28 36 23 1 -1 4 -25 8 -53z m400 11 c-1 -20 -6 -39 -10 -42 -4 -4 -4 5 0 20 3 16 1 30 -5 34 -8 4 -7 9 2 15 8 5 14 9 15 9 1 0 0 -16 -2 -36z m-259 16 c-3 -5 -13 -10 -21 -10 -8 0 -12 5 -9 10 3 6 13 10 21 10 8 0 12 -4 9 -10z m-431 -42 c3 -24 5 -50 5 -58 -1 -8 2 -86 6 -172 6 -154 5 -158 -15 -158 -17 0 -20 6 -20 48 0 26 5 53 12 60 7 7 9 12 5 12 -28 0 -47 17 -47 41 0 10 8 22 17 28 16 8 16 14 6 42 -7 17 -9 37 -5 43 4 6 7 36 8 66 2 82 3 90 13 90 6 0 12 -19 15 -42z m346 2 c0 -22 -2 -40 -4 -40 -2 0 -6 18 -8 40 -2 22 0 40 4 40 5 0 8 -18 8 -40z m-1540 20 c0 -5 -2 -10 -4 -10 -3 0 -8 5 -11 10 -3 6 -1 10 4 10 6 0 11 -4 11 -10z m1863 -72 c-9 -16 -33 -7 -33 12 0 11 -7 23 -15 26 -8 4 -13 10 -10 15 3 4 12 6 20 2 10 -3 15 1 16 13 1 11 7 1 14 -21 7 -22 10 -43 8 -47z m-226 26 c2 -28 -1 -35 -15 -32 -21 4 -28 43 -10 62 17 18 22 12 25 -30z m-653 15 c39 -31 49 -64 31 -99 -31 -60 -105 -69 -154 -19 -38 38 -40 76 -6 113 31 34 90 36 129 5z m417 -12 c9 -7 19 -25 24 -42 13 -49 14 -228 1 -244 -8 -11 -8 -13 2 -7 7 4 12 2 12 -7 0 -29 -69 -32 -71 -4 0 7 -2 35 -5 62 -7 101 -11 220 -6 237 5 21 20 23 43 5z m409 -18 c0 -11 -4 -17 -10 -14 -5 3 -10 13 -10 21 0 8 5 14 10 14 6 0 10 -9 10 -21z m-523 -41 c-3 -8 -6 -5 -6 6 -1 11 2 17 5 13 3 -3 4 -12 1 -19z m212 -102 c1 -51 -2 -65 -15 -70 -24 -9 -26 -4 -25 62 0 32 -4 74 -9 92 -8 29 -7 32 10 27 11 -3 20 0 21 6 3 31 17 -60 18 -117z m-1502 94 c-1 -11 -5 -20 -9 -20 -11 0 -20 19 -13 30 11 17 24 11 22 -10z m51 -25 c22 -48 11 -84 -16 -52 -12 14 -13 77 -2 77 4 0 12 -11 18 -25z m1244 -27 c-9 -9 -12 -7 -12 12 0 19 3 21 12 12 9 -9 9 -15 0 -24z m-1472 1 c0 -6 -4 -7 -10 -4 -5 3 -10 11 -10 16 0 6 5 7 10 4 6 -3 10 -11 10 -16z m60 12 c0 -6 -4 -13 -10 -16 -5 -3 -10 1 -10 9 0 9 5 16 10 16 6 0 10 -4 10 -9z m120 -21 c4 -29 0 -40 -15 -40 -18 0 -20 16 -4 26 8 4 6 10 -6 17 -14 7 -15 11 -4 18 15 9 26 1 29 -21z m1549 -115 c11 -71 18 -131 16 -133 -5 -6 -11 23 -30 144 -16 107 -18 130 -10 123 2 -3 13 -63 24 -134z m-1389 33 c0 -73 -3 -89 -12 -80 -12 12 -20 134 -11 160 14 35 23 2 23 -80z m-410 62 c0 -5 -5 -10 -11 -10 -5 0 -7 5 -4 10 3 6 8 10 11 10 2 0 4 -4 4 -10z m70 6 c0 -9 -30 -14 -35 -6 -4 6 3 10 14 10 12 0 21 -2 21 -4z m-110 -16 c0 -5 -5 -10 -11 -10 -5 0 -7 5 -4 10 3 6 8 10 11 10 2 0 4 -4 4 -10z m1577 -12 c-3 -8 -6 -5 -6 6 -1 11 2 17 5 13 3 -3 4 -12 1 -19z m-1233 -27 c-5 -3 -6 -28 -3 -56 3 -27 7 -41 8 -30 l2 20 9 -20 c7 -15 9 -10 9 23 1 30 5 42 13 40 17 -6 31 -83 23 -124 -7 -42 -35 -47 -35 -6 0 19 -5 29 -15 29 -8 0 -15 -7 -15 -14 0 -8 5 -11 11 -7 7 4 9 -2 7 -17 -5 -34 -72 -50 -96 -22 -33 36 -23 62 23 63 18 0 20 7 21 61 0 40 5 63 14 69 15 10 37 1 24 -9z m-63 -4 c-1 -4 -1 -14 -1 -22 0 -8 -4 -15 -10 -15 -5 0 -10 12 -10 26 0 14 5 24 11 22 6 -2 10 -7 10 -11z m1304 3 c3 -5 1 -10 -4 -10 -6 0 -11 5 -11 10 0 6 2 10 4 10 3 0 8 -4 11 -10z m-1485 -115 c-21 -38 -53 -98 -71 -132 l-34 -63 -20 20 -20 21 33 62 c17 34 51 95 73 136 l41 74 19 -24 c17 -23 17 -25 -21 -94z m64 69 c3 -8 2 -12 -4 -9 -6 3 -10 10 -10 16 0 14 7 11 14 -7z m1426 6 c0 -5 -2 -10 -4 -10 -3 0 -8 5 -11 10 -3 6 -1 10 4 10 6 0 11 -4 11 -10z m-1830 -20 c0 -13 -5 -18 -14 -14 -8 3 -12 12 -9 20 8 21 23 17 23 -6z m520 -4 c-6 -8 -18 -12 -26 -9 -22 8 -16 18 12 21 22 2 24 0 14 -12z m1496 -2 c-3 -9 -6 -20 -6 -25 0 -6 -4 -8 -9 -5 -12 8 -2 46 11 46 6 0 7 -7 4 -16z m-189 -56 c-2 -13 -4 -3 -4 22 0 25 2 35 4 23 2 -13 2 -33 0 -45z m-1322 22 c3 -5 -1 -10 -10 -10 -9 0 -13 5 -10 10 3 6 8 10 10 10 2 0 7 -4 10 -10z m175 -51 c0 -10 -4 -19 -10 -19 -5 0 -10 12 -10 26 0 14 4 23 10 19 6 -3 10 -15 10 -26z m-703 -31 c-3 -8 -6 -5 -6 6 -1 11 2 17 5 13 3 -3 4 -12 1 -19z m1264 -129 c5 -11 9 -34 7 -52 -3 -30 -6 -32 -45 -35 -42 -3 -42 -3 -45 -45 -3 -42 -3 -42 -45 -45 l-42 -3 -3 -82 -3 -82 -42 -3 -43 -3 0 180 0 181 45 0 c25 0 45 3 45 8 0 4 36 6 80 4 68 -3 82 -7 91 -23z m263 -12 c0 -9 -1 -89 -2 -177 l-2 -160 -45 0 -45 0 0 84 0 85 -42 3 -43 3 -3 48 -3 47 45 0 c45 0 46 0 46 33 0 43 11 53 57 52 29 -1 38 -5 37 -18z m936 19 c0 -3 -4 -8 -10 -11 -5 -3 -10 -1 -10 4 0 6 5 11 10 11 6 0 10 -2 10 -4z m-1820 -356 c-12 -23 -30 -27 -30 -7 0 17 10 27 27 27 11 0 11 -5 3 -20z m26 -54 c4 -16 11 -23 20 -19 10 4 12 0 8 -11 -3 -9 -10 -16 -16 -16 -5 0 -6 -4 -3 -10 4 -6 -9 -10 -32 -10 -27 0 -34 -3 -23 -10 8 -5 12 -11 10 -14 -11 -10 -139 -16 -145 -6 -4 6 -15 4 -31 -6 -13 -9 -22 -19 -20 -22 3 -3 11 0 18 5 9 8 29 7 66 0 39 -8 61 -8 85 1 29 10 30 10 13 -3 -19 -14 -18 -15 15 -16 l34 -1 -35 -10 c-62 -18 -66 -20 -52 -25 23 -9 12 -23 -17 -23 -19 0 -40 10 -58 28 -33 33 -88 48 -100 28 -9 -15 -63 -28 -63 -15 0 5 8 9 18 9 19 0 67 46 67 64 0 6 16 12 35 14 20 2 40 12 48 24 12 16 21 19 48 13 29 -5 34 -3 34 13 0 11 7 22 15 26 8 3 15 1 15 -3 0 -5 -5 -11 -12 -13 -6 -2 -8 -10 -4 -17 6 -9 11 -9 21 -1 8 7 19 9 25 5 13 -8 13 1 0 26 -7 13 -7 19 -1 19 6 0 13 -11 17 -24z m1294 -31 c7 -8 16 -12 21 -9 5 3 21 -7 35 -21 l26 -26 -24 5 c-12 3 -41 8 -63 11 -37 6 -75 29 -75 45 0 13 68 9 80 -5z m-530 -47 l0 -48 -40 0 -40 0 0 48 0 47 40 0 40 0 0 -47z m-640 28 c0 -2 -7 -7 -16 -10 -8 -3 -12 -2 -9 4 6 10 25 14 25 6z m1330 -56 c0 -5 -15 -10 -34 -10 -19 0 -41 -3 -50 -6 -11 -4 -16 -1 -16 10 0 13 11 16 50 16 28 0 50 -4 50 -10z m-1222 -27 c-3 -29 -32 -41 -64 -29 -12 5 -9 11 13 31 38 33 55 32 51 -2z m-158 7 c0 -5 -6 -10 -14 -10 -8 0 -21 -3 -30 -6 -9 -3 -16 -1 -16 6 0 6 4 9 9 5 5 -3 12 -1 16 5 8 13 35 13 35 0z m900 -16 c0 -2 -7 -4 -15 -4 -8 0 -15 4 -15 10 0 5 7 7 15 4 8 -4 15 -8 15 -10z m-1330 -26 c-13 -5 -28 -7 -34 -4 -6 2 -3 5 7 5 9 1 17 5 17 11 0 5 7 7 17 3 14 -5 12 -8 -7 -15z m386 -5 c-11 -11 -48 -14 -41 -3 3 5 16 10 27 10 12 0 18 -3 14 -7z m-466 -7 c0 -3 -4 -8 -10 -11 -5 -3 -10 -1 -10 4 0 6 5 11 10 11 6 0 10 -2 10 -4z m140 -16 c8 -5 11 -10 5 -10 -5 0 -17 5 -25 10 -8 5 -10 10 -5 10 6 0 17 -5 25 -10z m-46 -12 c-2 -8 -27 -14 -61 -16 -64 -3 -64 8 0 19 64 10 67 10 61 -3z m1355 8 c-12 -10 -60 -16 -54 -6 3 5 18 10 32 10 15 0 24 -2 22 -4z m-1244 -36 c12 -19 -12 -10 -31 11 -19 22 -19 22 3 10 12 -6 25 -16 28 -21z m1725 26 c0 -3 -4 -8 -10 -11 -5 -3 -10 -1 -10 4 0 6 5 11 10 11 6 0 10 -2 10 -4z m67 -2 c-3 -3 -12 -4 -19 -1 -8 3 -5 6 6 6 11 1 17 -2 13 -5z m12 -37 c-25 -24 -60 -28 -67 -9 -2 6 9 14 25 18 15 3 33 7 38 9 25 8 26 3 4 -18z m-1734 3 c4 -6 -6 -10 -22 -9 -25 0 -26 1 -8 9 11 5 21 9 22 9 1 1 5 -3 8 -9z m1798 -13 c4 3 7 -3 7 -15 0 -28 -9 -31 -50 -16 -27 10 -30 13 -12 13 13 1 22 7 22 17 0 13 3 14 13 5 8 -6 17 -8 20 -4z m-1530 -14 c-7 -2 -19 -2 -25 0 -7 3 -2 5 12 5 14 0 19 -2 13 -5z m77 -40 c0 -15 -2 -15 -12 -2 -7 8 -22 22 -33 33 -20 18 -19 18 13 2 17 -9 32 -24 32 -33z m40 7 c8 -5 11 -10 5 -10 -5 0 -17 5 -25 10 -8 5 -10 10 -5 10 6 0 17 -5 25 -10z m858 -8 c2 -7 -2 -10 -12 -6 -18 7 -22 -11 -5 -22 8 -4 7 -10 -1 -18 -9 -8 -14 -8 -17 2 -3 6 -23 13 -46 14 l-42 1 38 4 c24 3 37 9 37 19 0 17 -1 17 -34 4 -15 -5 -26 -6 -26 0 0 21 101 24 108 2z m317 -12 c3 -5 1 -10 -4 -10 -6 0 -11 5 -11 10 0 6 2 10 4 10 3 0 8 -4 11 -10z m455 6 c0 -3 -4 -8 -10 -11 -5 -3 -10 -1 -10 4 0 6 5 11 10 11 6 0 10 -2 10 -4z m-1622 -24 c2 -7 -10 -9 -35 -5 -54 8 -61 20 -11 17 23 -1 44 -7 46 -12z m-808 -2 c0 -5 10 -10 23 -11 12 0 -5 -9 -38 -19 -69 -23 -79 -24 -70 -10 3 6 15 10 25 10 11 0 24 9 30 20 11 21 30 27 30 10z m2030 -15 c13 -14 19 -25 13 -25 -5 0 -20 11 -33 25 -13 14 -19 25 -13 25 5 0 20 -11 33 -25z m-1842 2 c-7 -8 -20 -12 -29 -10 -10 3 -26 -3 -36 -14 -25 -24 -47 -27 -63 -8 -10 12 -10 15 4 15 9 0 16 4 16 9 0 6 24 12 53 14 28 2 56 4 60 5 4 1 2 -4 -5 -11z m37 -18 c-4 -5 -13 -9 -22 -9 -13 0 -13 3 -3 15 13 15 35 11 25 -6z m533 11 c-10 -6 -25 -7 -40 -1 -20 9 -18 10 17 10 31 0 36 -2 23 -9z m862 -34 c0 -3 -4 -8 -10 -11 -5 -3 -10 -1 -10 4 0 6 5 11 10 11 6 0 10 -2 10 -4z m76 -31 c-9 -9 -16 -13 -16 -8 0 12 22 34 28 28 2 -2 -3 -11 -12 -20z m-2 -84 c27 7 29 7 13 -5 -22 -17 -59 -15 -65 4 -3 11 -2 12 8 3 8 -7 22 -8 44 -2z m113 -15 c4 -3 4 -8 2 -10 -7 -6 -69 6 -69 13 0 8 59 6 67 -3z m-87 -16 c-8 -5 -24 -9 -35 -9 -16 1 -16 2 5 9 35 11 48 11 30 0z m-950 -29 c0 -5 -7 -12 -16 -15 -14 -5 -15 -4 -4 9 14 17 20 19 20 6z m27 -67 c-3 -3 -12 -4 -19 -1 -8 3 -5 6 6 6 11 1 17 -2 13 -5z"/>
    <path d="M860 1770 c0 -5 5 -10 11 -10 5 0 7 5 4 10 -3 6 -8 10 -11 10 -2 0 -4 -4 -4 -10z"/>
    <path d="M840 1682 c0 -9 7 -37 14 -62 11 -33 15 -38 15 -20 1 14 4 36 8 49 l6 24 18 -24 c17 -22 19 -23 19 -4 0 21 -28 44 -61 50 -13 3 -19 -2 -19 -13z"/>
    <path d="M880 1630 c0 -5 5 -10 11 -10 5 0 7 5 4 10 -3 6 -8 10 -11 10 -2 0 -4 -4 -4 -10z"/>
    <path d="M842 1570 c0 -14 2 -19 5 -12 2 6 2 18 0 25 -3 6 -5 1 -5 -13z"/>
    <path d="M2390 1930 c0 -5 5 -10 11 -10 5 0 7 5 4 10 -3 6 -8 10 -11 10 -2 0 -4 -4 -4 -10z"/>
    <path d="M2054 1629 c-3 -6 -1 -16 4 -21 8 -8 11 -5 9 11 -1 24 -3 25 -13 10z"/>
    <path d="M566 1434 c-4 -11 -1 -14 11 -12 9 2 18 9 21 16 6 18 -25 15 -32 -4z"/>
    <path d="M1120 1245 c0 -45 0 -45 35 -45 32 0 35 2 35 29 0 16 3 36 6 45 5 13 -2 16 -35 16 l-41 0 0 -45z"/>
    <path d="M614 828 c-7 -11 48 -10 65 1 10 6 2 9 -23 8 -21 -1 -40 -5 -42 -9z"/>
    <path d="M600 800 c-23 -7 -23 -8 -3 -9 12 -1 25 4 28 9 3 6 5 10 3 9 -2 -1 -14 -5 -28 -9z"/>
    <path d="M556 708 c21 -17 27 -19 35 -7 14 23 11 27 -26 27 l-35 0 26 -20z"/>
  </g>
</svg>